<svg id="visual" viewBox="0 0 800 140" width="800" height="140" xmlns="http://www.w3.org/2000/svg" xmlns:xlink="http://www.w3.org/1999/xlink" version="1.1"><rect x="0" y="0" width="800" height="140" fill="#CCCCCC"></rect><defs><linearGradient id="grad1_0" x1="82.5%" y1="100%" x2="100%" y2="0%"><stop offset="-64.28571428571428%" stop-color="#0066ff" stop-opacity="1"></stop><stop offset="164.28571428571428%" stop-color="#0066ff" stop-opacity="1"></stop></linearGradient></defs><defs><linearGradient id="grad1_1" x1="82.5%" y1="100%" x2="100%" y2="0%"><stop offset="-64.28571428571428%" stop-color="#0066ff" stop-opacity="1"></stop><stop offset="164.28571428571428%" stop-color="#cccccc" stop-opacity="1"></stop></linearGradient></defs><defs><linearGradient id="grad2_0" x1="0%" y1="100%" x2="17.5%" y2="0%"><stop offset="-64.28571428571428%" stop-color="#0066ff" stop-opacity="1"></stop><stop offset="164.28571428571428%" stop-color="#0066ff" stop-opacity="1"></stop></linearGradient></defs><defs><linearGradient id="grad2_1" x1="0%" y1="100%" x2="17.5%" y2="0%"><stop offset="-64.28571428571428%" stop-color="#cccccc" stop-opacity="1"></stop><stop offset="164.28571428571428%" stop-color="#0066ff" stop-opacity="1"></stop></linearGradient></defs><g transform="translate(800, 140)"><path d="M-140 0C-136.8 -25.3 -133.6 -50.6 -121.2 -70C-108.8 -89.4 -87.2 -102.8 -65.5 -113.4C-43.8 -124.1 -21.9 -132.1 0 -140L0 0Z" fill="#9397e7"></path><path d="M-70 0C-68.4 -12.7 -66.8 -25.3 -60.6 -35C-54.4 -44.7 -43.6 -51.4 -32.8 -56.7C-21.9 -62.1 -10.9 -66 0 -70L0 0Z" fill="#0066ff"></path></g><g transform="translate(0, 0)"><path d="M140 0C136.6 24.9 133.1 49.7 121.2 70C109.4 90.3 89.1 106 67.5 116.9C45.9 127.8 22.9 133.9 0 140L0 0Z" fill="#9397e7"></path><path d="M70 0C68.3 12.4 66.6 24.9 60.6 35C54.7 45.1 44.6 53 33.8 58.5C22.9 63.9 11.5 67 0 70L0 0Z" fill="#0066ff"></path></g></svg>