<svg id="visual" viewBox="0 0 960 540" width="960" height="540" xmlns="http://www.w3.org/2000/svg" xmlns:xlink="http://www.w3.org/1999/xlink" version="1.1"><rect x="0" y="0" width="960" height="540" fill="#dedfe0"></rect><path d="M768 540L760 517.5C752 495 736 450 742.7 405C749.3 360 778.7 315 802.8 270C827 225 846 180 836.3 135C826.7 90 788.3 45 769.2 22.5L750 0L960 0L960 22.5C960 45 960 90 960 135C960 180 960 225 960 270C960 315 960 360 960 405C960 450 960 495 960 517.5L960 540Z" fill="#0066FF" stroke-linecap="round" stroke-linejoin="miter"></path></svg>