<svg id="visual" viewBox="0 0 960 540" width="960" height="540" xmlns="http://www.w3.org/2000/svg" xmlns:xlink="http://www.w3.org/1999/xlink" version="1.1"><rect x="0" y="0" width="960" height="540" fill="#002233"></rect><path d="M0 384L22.8 389C45.7 394 91.3 404 137 407C182.7 410 228.3 406 274 414.8C319.7 423.7 365.3 445.3 411.2 445.8C457 446.3 503 425.7 548.8 416.2C594.7 406.7 640.3 408.3 686 398.7C731.7 389 777.3 368 823 360.5C868.7 353 914.3 359 937.2 362L960 365L960 541L937.2 541C914.3 541 868.7 541 823 541C777.3 541 731.7 541 686 541C640.3 541 594.7 541 548.8 541C503 541 457 541 411.2 541C365.3 541 319.7 541 274 541C228.3 541 182.7 541 137 541C91.3 541 45.7 541 22.8 541L0 541Z" fill="#0066FF" stroke-linecap="round" stroke-linejoin="miter"></path></svg>